<?xml version="1.0" encoding="UTF-8"?>
<svg version="1.1" xmlns="http://www.w3.org/2000/svg" width="512" height="512">
<path d="M0 0 C0.65663525 -0.00367669 1.3132705 -0.00735338 1.98980379 -0.01114148 C4.18270439 -0.0221246 6.37555752 -0.02601303 8.56848145 -0.02983093 C10.14416655 -0.03609983 11.71985019 -0.04274701 13.29553223 -0.04974365 C18.46528096 -0.07074234 23.63502983 -0.0811447 28.80480957 -0.09111023 C30.58911657 -0.09515988 32.37342341 -0.09927686 34.1577301 -0.10346031 C42.54533716 -0.12250575 50.93293547 -0.13673602 59.32055998 -0.14507228 C68.97847004 -0.15483123 78.63615009 -0.18111833 88.29397917 -0.22157317 C95.77362869 -0.25182028 103.25321262 -0.26654942 110.73292208 -0.26985329 C115.19293724 -0.2721947 119.65270651 -0.28103536 124.11265564 -0.30631447 C128.31525349 -0.32975007 132.51744628 -0.33376689 136.72009277 -0.32355309 C138.25302994 -0.32306129 139.7859881 -0.3292751 141.31886292 -0.34310913 C158.41164936 -0.4885965 169.25762193 3.2956712 181.47843933 15.01539612 C183.44231354 16.95837984 185.40051935 18.90611329 187.35437012 20.85908508 C188.44063491 21.93771472 189.52729567 23.01594569 190.61431885 24.09381104 C193.5467104 27.00439183 196.47262758 29.92139472 199.3966825 32.84034824 C201.2276493 34.66765727 203.0599041 36.4936649 204.89258766 38.31925201 C211.29684537 44.69906751 217.69540884 51.08453693 224.0892334 57.47480774 C230.03277437 63.41471158 235.98932875 69.34134406 241.95193452 75.26210427 C247.08630977 80.3617156 252.21095087 85.47097576 257.32832175 90.58765006 C260.3780589 93.63659686 263.43158311 96.68149295 266.49518394 99.71651459 C269.37671941 102.57176281 272.2458906 105.43889491 275.10630798 108.31529427 C276.15284723 109.36363917 277.20360409 110.4077948 278.25902748 111.44719505 C287.98090347 121.03050489 294.24006789 130.63602813 294.59053516 144.632658 C294.60276946 146.77221716 294.60411875 148.91185592 294.59675598 151.05143738 C294.60058153 152.2354473 294.60440708 153.41945723 294.60834855 154.63934624 C294.61685452 157.90846857 294.61645531 161.17744651 294.61216795 164.44657254 C294.60969465 167.97904713 294.61872239 171.51149563 294.62620544 175.04396057 C294.63893771 181.95779217 294.64074797 188.8715849 294.63840518 195.78542624 C294.63662021 201.40681713 294.63837551 207.02819624 294.64262962 212.64958572 C294.64322481 213.45046934 294.64382 214.25135295 294.64443323 215.07650576 C294.64564501 216.70364617 294.64685915 218.33078659 294.6480756 219.957927 C294.65894548 235.2083568 294.65679127 250.45876447 294.65069076 265.70919551 C294.64552215 279.65025673 294.65677655 293.59124806 294.67578898 307.53229545 C294.69517692 321.85890083 294.70342169 336.18547317 294.69966573 350.51209176 C294.69775513 358.55060954 294.70022747 366.58906786 294.71438026 374.62757492 C294.72630723 381.47091562 294.72768423 388.31416023 294.7155901 395.15750228 C294.7097106 398.64636827 294.70857603 402.13505862 294.7205925 405.62391281 C294.73105195 409.41241666 294.72296489 413.20045034 294.71028137 416.98893738 C294.71765566 418.08272701 294.72502994 419.17651664 294.73262769 420.30345142 C294.65072573 431.95435655 291.48728579 442.48652648 283.44934082 451.19013977 C273.39367597 460.45557556 262.54929191 462.45814359 249.22940063 462.40786743 C248.14324711 462.41169298 247.05709358 462.41551853 245.93802631 462.41946 C242.31560859 462.42973997 238.69335085 462.42580733 235.07092285 462.42182922 C232.46678522 462.42617845 229.86264886 462.43136231 227.2585144 462.43731689 C220.92935935 462.45003621 214.60024678 462.45186105 208.2710811 462.44951663 C203.12407405 462.44773022 197.97707984 462.44949003 192.83007431 462.45374107 C191.72929822 462.45463386 191.72929822 462.45463386 190.60628422 462.45554468 C189.11523907 462.45675649 187.62419392 462.45797062 186.13314877 462.45918705 C172.16457201 462.47005192 158.19601941 462.46790509 144.2274413 462.46180221 C131.46402446 462.45663392 118.70068396 462.46788804 105.93728222 462.48690043 C92.81410295 462.50629804 79.69095976 462.51453146 66.56776607 462.51077718 C59.20719125 462.50886806 51.8466814 462.51132443 44.48611832 462.52549171 C37.56348962 462.53868187 30.64101593 462.53611942 23.7183876 462.52308083 C21.18160958 462.52071699 18.64482079 462.52344276 16.10805511 462.53170395 C12.63742244 462.54218908 9.16730044 462.53405597 5.69668579 462.52139282 C4.69987388 462.52876711 3.70306196 462.53614139 2.67604363 462.54373914 C-9.11432145 462.45362919 -19.75328976 459.28997161 -28.66784668 451.36592102 C-36.3895405 443.22728909 -39.78383497 433.43800181 -39.79536819 422.37538624 C-39.79844715 421.36833238 -39.79844715 421.36833238 -39.8015883 420.34093401 C-39.80725106 418.08710364 -39.80580194 415.83333452 -39.80438232 413.57949829 C-39.80696637 411.94888828 -39.80997965 410.31827891 -39.81338573 408.68767041 C-39.82145428 404.20324689 -39.82324522 399.71883937 -39.82398319 395.23440945 C-39.825834 390.39921904 -39.83338147 385.56403693 -39.84011841 380.72885132 C-39.85370119 370.15443417 -39.85972635 359.58002082 -39.86412907 349.0055964 C-39.86689156 342.40309522 -39.87112892 335.80059551 -39.87563324 329.19809532 C-39.88782578 310.91828789 -39.89812516 292.63848164 -39.90150833 274.35867023 C-39.9017279 273.1886874 -39.90194746 272.01870457 -39.90217368 270.81326772 C-39.90239196 269.64048341 -39.90261024 268.4676991 -39.90283513 267.25937587 C-39.9032786 264.88286292 -39.90372516 262.50634998 -39.9041748 260.12983704 C-39.90439623 258.9510042 -39.90461766 257.77217136 -39.9048458 256.55761632 C-39.90879386 237.45608654 -39.9262482 218.35459491 -39.94953433 199.25307987 C-39.97324795 179.64263657 -39.98571019 160.03221241 -39.98687625 140.42175454 C-39.987793 129.41089214 -39.9935453 118.40007944 -40.01169586 107.38923073 C-40.02709696 98.01326271 -40.03221723 88.63735975 -40.02395776 79.26138148 C-40.02005132 74.47840449 -40.02098061 69.69555853 -40.03501511 64.91259766 C-40.04775418 60.53101263 -40.04655642 56.1496571 -40.03442439 51.76807239 C-40.03246742 50.1859526 -40.03554587 48.60381656 -40.04426876 47.02171961 C-40.11503452 33.31504554 -38.26453374 21.71450647 -28.88269043 11.13935852 C-20.77387134 3.46256667 -11.01825293 0.04013664 0 0 Z M38.33605957 103.14717102 C38.33605957 119.97717102 38.33605957 136.80717102 38.33605957 154.14717102 C71.66605957 154.14717102 104.99605957 154.14717102 139.33605957 154.14717102 C139.33605957 137.31717102 139.33605957 120.48717102 139.33605957 103.14717102 C106.00605957 103.14717102 72.67605957 103.14717102 38.33605957 103.14717102 Z M38.33605957 206.14717102 C38.33605957 222.64717102 38.33605957 239.14717102 38.33605957 256.14717102 C97.07605957 256.14717102 155.81605957 256.14717102 216.33605957 256.14717102 C216.33605957 239.64717102 216.33605957 223.14717102 216.33605957 206.14717102 C157.59605957 206.14717102 98.85605957 206.14717102 38.33605957 206.14717102 Z M38.33605957 308.14717102 C38.33605957 324.97717102 38.33605957 341.80717102 38.33605957 359.14717102 C80.24605957 359.14717102 122.15605957 359.14717102 165.33605957 359.14717102 C165.33605957 342.31717102 165.33605957 325.48717102 165.33605957 308.14717102 C123.42605957 308.14717102 81.51605957 308.14717102 38.33605957 308.14717102 Z " fill="#000000" transform="translate(64.6639404296875,24.852828979492188)"/>
<path d="M0 0 C33.99 0 67.98 0 103 0 C104.11741506 34.47964669 105.03427196 68.9407394 105.55326647 103.43323182 C105.61574905 107.57042818 105.68047021 111.70758668 105.74658203 115.84472656 C105.75969755 116.66783011 105.77281307 117.49093367 105.78632604 118.33897975 C105.97359803 129.80256484 106.28013845 141.25726388 106.68671641 152.71508771 C107.38906699 172.51190156 107.84716313 192.29936667 107.8828125 212.109375 C107.8847411 212.88413736 107.8866697 213.65889972 107.88865674 214.45713973 C107.99845158 280.39705746 89.98665497 328.85405964 53 384 C48.80058668 382.60019556 47.42305715 379.61941166 45.11917114 376.05145264 C44.63615386 375.30983155 44.15313658 374.56821046 43.65548241 373.80411601 C9.37628086 320.47618327 -5.02335648 274.05712041 -4.8828125 211.328125 C-4.88154212 210.55641818 -4.88027175 209.78471137 -4.87896287 208.98961949 C-4.83424202 189.23231516 -4.30458097 169.49768723 -3.60133338 149.75419855 C-3.1983168 138.30977669 -2.92969407 126.86746742 -2.74658203 115.41748047 C-2.72687777 114.18890937 -2.72687777 114.18890937 -2.70677544 112.93551865 C-2.641472 108.82211615 -2.57829902 104.7086842 -2.51618028 100.59523249 C-2.00688699 67.04921833 -1.09083874 33.53338968 0 0 Z " fill="#000000" transform="translate(409,128)"/>
<path d="M0 0 C0.85464844 0.4125 1.70929688 0.825 2.58984375 1.25 C14.72228572 7.83030751 21.92213775 17.46402757 27 30 C30.94192644 43.79674254 29 58.65117117 29 73 C-4.99 73 -38.98 73 -74 73 C-74 25.42631689 -74 25.42631689 -58.4765625 9.25390625 C-42.97464969 -4.85430147 -19.19480033 -9.37761238 0 0 Z " fill="#000000" transform="translate(483,4)"/>
</svg>
