<?xml version="1.0" encoding="UTF-8"?>
<svg version="1.1" xmlns="http://www.w3.org/2000/svg" width="512" height="512">
<path d="M0 0 C1.27780334 -0.00511093 2.55560669 -0.01022186 3.87213135 -0.01548767 C7.3496035 -0.02877778 10.8269663 -0.02946748 14.30445886 -0.02692437 C17.22151934 -0.02584761 20.13855834 -0.03075602 23.05561417 -0.03552979 C29.94578418 -0.04659092 36.83589965 -0.04708189 43.72607422 -0.04101562 C50.80157366 -0.03498133 57.87687398 -0.04728075 64.95233947 -0.06858569 C71.05631588 -0.08628022 77.16022936 -0.09219067 83.26423043 -0.08894795 C86.89693037 -0.08714706 90.5294883 -0.08965018 94.16216469 -0.10366249 C98.22021757 -0.11873243 102.27787297 -0.10920258 106.3359375 -0.09765625 C107.51713669 -0.10529999 108.69833588 -0.11294373 109.91532898 -0.12081909 C125.90414899 -0.02090779 137.91402276 3.94150177 149.5690918 14.8918457 C158.1562701 23.81548926 162.96439174 35.48096363 163.00250244 47.88233948 C163.00821259 48.99936752 163.01392273 50.11639557 163.01980591 51.26727295 C163.0214827 53.09152802 163.0214827 53.09152802 163.02319336 54.95263672 C163.02815826 56.24106979 163.03312317 57.52950287 163.03823853 58.85697937 C163.05132716 62.38630158 163.05780115 65.9156048 163.06224918 69.44494748 C163.06518704 71.65469124 163.06929329 73.86442989 163.07375336 76.07417107 C163.0874221 83.00146381 163.09709048 89.92874478 163.10095525 96.85605007 C163.10542757 104.82673617 163.12293951 112.79725006 163.15195584 120.76788384 C163.17365365 126.94477004 163.18366391 133.12160809 163.18499637 139.29853195 C163.18603908 142.97991217 163.19183151 146.6611304 163.20981598 150.34247017 C163.22953394 154.4587236 163.22497564 158.5746223 163.21850586 162.69091797 C163.22772064 163.8929184 163.23693542 165.09491882 163.24642944 166.33334351 C163.17447189 181.0212071 159.4323022 193.57802442 149.36206055 204.5246582 C137.446552 215.81114292 123.55074588 218.58186596 107.63818359 218.54931641 C106.33941284 218.55442734 105.04064209 218.55953827 103.70251465 218.56480408 C100.16306951 218.57811276 96.62373168 218.57878177 93.08426642 218.57624078 C90.11745541 218.57516528 87.1506656 218.58006928 84.18385917 218.5848462 C77.1772439 218.59591379 70.17068226 218.59639465 63.1640625 218.59033203 C55.96416522 218.5842974 48.76446361 218.59659653 41.56459969 218.6179021 C35.35790004 218.63558543 29.15126229 218.64150881 22.94453841 218.63826436 C19.24869922 218.63646167 15.55299956 218.63898504 11.85718346 218.6529789 C7.72936923 218.66802563 3.60194664 218.65852863 -0.52587891 218.64697266 C-2.33347939 218.65843826 -2.33347939 218.65843826 -4.17759705 218.6701355 C-19.48889432 218.57587694 -32.57811747 214.49185606 -43.80981445 203.8605957 C-53.99173758 192.55114418 -56.59498882 180.24477023 -56.54199219 165.47827148 C-56.547707 164.11696822 -56.55467552 162.75566974 -56.56278992 161.39437866 C-56.58061523 157.72479055 -56.57957303 154.05544295 -56.57384753 150.38582468 C-56.57073978 147.30960044 -56.57686574 144.23342134 -56.58288628 141.15720356 C-56.59689539 133.89309365 -56.59540083 126.62910143 -56.58398438 119.36499023 C-56.57251023 111.8997394 -56.58657507 104.43484813 -56.61338085 96.96964467 C-56.635616 90.53361442 -56.64215762 84.09769639 -56.63630444 77.66163051 C-56.63295183 73.82939782 -56.63523568 69.99739543 -56.65255547 66.16519547 C-56.66814771 62.5583539 -56.66393524 58.95204029 -56.64525032 55.34521866 C-56.63987276 53.4105367 -56.65398513 51.47583032 -56.66894531 49.54119873 C-56.55504338 35.87378371 -52.23804767 24.29180584 -43.1418457 14.02075195 C-31.03956214 2.31817684 -16.12663182 -0.03365058 0 0 Z M-17.13793945 42.2746582 C-19.06079847 45.44460053 -19.39040075 47.81895451 -19.39863586 51.50547791 C-19.40572067 52.56393417 -19.41280548 53.62239044 -19.42010498 54.71292114 C-19.41762756 55.86887787 -19.41515015 57.02483459 -19.41259766 58.21582031 C-19.41770859 59.43732285 -19.42281952 60.65882538 -19.42808533 61.91734314 C-19.43960435 65.26452437 -19.44205483 68.61145799 -19.43952203 71.95864177 C-19.43845184 74.7543747 -19.4433369 77.55008482 -19.44812745 80.34581286 C-19.45922019 86.94214782 -19.45966136 93.53842584 -19.45361328 100.13476562 C-19.44757271 106.93650812 -19.45988702 113.73804379 -19.48118335 120.53975099 C-19.49880432 126.38276231 -19.50479994 132.22570782 -19.50154561 138.06874472 C-19.49973339 141.55708125 -19.50236263 145.04527024 -19.51626015 148.53358269 C-19.53117928 152.4238381 -19.52186398 156.31383048 -19.51025391 160.20410156 C-19.51789764 161.35803406 -19.52554138 162.51196655 -19.53341675 163.7008667 C-19.52640244 164.76214279 -19.51938812 165.82341888 -19.51216125 166.91685486 C-19.512329 167.83621795 -19.51249674 168.75558104 -19.51266956 169.70280361 C-18.92553307 173.73244957 -17.18488899 176.2619367 -14.28922939 179.0629282 C-11.59562277 180.58012209 -9.80260753 180.65449507 -6.71730042 180.66233826 C-5.06650986 180.67719521 -5.06650986 180.67719521 -3.38237 180.69235229 C-2.17965958 180.68785065 -0.97694916 180.683349 0.26220703 180.67871094 C1.53247742 180.68557419 2.8027478 180.69243744 4.11151123 180.69950867 C7.59297719 180.71745191 11.07419126 180.71626955 14.55568957 180.71056628 C17.4632715 180.70747594 20.37080494 180.71356517 23.27837998 180.71960503 C30.13842715 180.73365259 36.99834981 180.73208723 43.85839844 180.72070312 C50.93286113 180.70922255 58.00694469 180.72329572 65.08135742 180.7500996 C71.15792619 180.77225981 77.23437598 180.77889326 83.31098229 180.77302319 C86.93908234 180.76965301 90.56693938 180.77207232 94.19500542 180.78927422 C98.24108749 180.80762073 102.28643243 180.79355316 106.33251953 180.77636719 C107.53320572 180.78603516 108.73389191 180.79570312 109.97096252 180.80566406 C116.33397034 180.80343441 116.33397034 180.80343441 122.08265686 178.36830139 C124.83509929 175.12978256 124.99146041 173.31088824 125.01596069 169.13249207 C125.02456116 168.04312851 125.03316162 166.95376495 125.04202271 165.83139038 C125.04628265 164.63084015 125.0505426 163.43028992 125.05493164 162.19335938 C125.06310913 160.93313461 125.07128662 159.67290985 125.07971191 158.37449646 C125.10593426 154.18889506 125.12123954 150.00328364 125.13549805 145.81762695 C125.1408576 144.37706305 125.14623511 142.93649921 125.1516304 141.49593544 C125.17325927 135.50388932 125.19199624 129.5118459 125.20325279 123.51977062 C125.21949399 114.93060595 125.25267511 106.34189352 125.30965364 97.75289935 C125.34834616 91.7146142 125.36788461 85.67645005 125.37317336 79.63804418 C125.3768278 76.03103995 125.38885757 72.42451803 125.42127609 68.81764793 C125.45693216 64.79287165 125.45298776 60.76906796 125.44555664 56.74414062 C125.46196198 55.54966309 125.47836731 54.35518555 125.49526978 53.12451172 C125.64490158 46.51866388 125.64490158 46.51866388 122.45059204 41.05781555 C118.82871205 38.56281716 117.07634709 38.14707751 112.71989441 38.12748718 C111.63053085 38.12033188 110.5411673 38.11317657 109.41879272 38.10580444 C108.21824249 38.10311554 107.01769226 38.10042664 105.78076172 38.09765625 C104.52053696 38.09108505 103.26031219 38.08451385 101.9618988 38.07774353 C98.49898841 38.06033019 95.03609182 38.04978086 91.57314849 38.041538 C89.40987581 38.03638849 87.24660743 38.03031273 85.08333778 38.02402687 C78.31569941 38.00497375 71.54807195 37.99074294 64.7804119 37.9824149 C56.96691416 37.97264131 49.15369963 37.94631944 41.34030169 37.90591401 C35.30201418 37.87575923 29.26380788 37.86094665 23.22544652 37.85763389 C19.61852003 37.85528263 16.01189604 37.84631301 12.40505028 37.82117271 C8.38036634 37.79357347 4.35631549 37.79772109 0.33154297 37.8046875 C-0.86293457 37.79187744 -2.05741211 37.77906738 -3.28808594 37.76586914 C-11.1199295 37.67336699 -11.1199295 37.67336699 -17.13793945 42.2746582 Z " fill="#000000" transform="translate(346.137939453125,290.725341796875)"/>
<path d="M0 0 C1.27780334 -0.00511093 2.55560669 -0.01022186 3.87213135 -0.01548767 C7.3496035 -0.02877778 10.8269663 -0.02946748 14.30445886 -0.02692437 C17.22151934 -0.02584761 20.13855834 -0.03075602 23.05561417 -0.03552979 C29.94578418 -0.04659092 36.83589965 -0.04708189 43.72607422 -0.04101562 C50.80157366 -0.03498133 57.87687398 -0.04728075 64.95233947 -0.06858569 C71.05631588 -0.08628022 77.16022936 -0.09219067 83.26423043 -0.08894795 C86.89693037 -0.08714706 90.5294883 -0.08965018 94.16216469 -0.10366249 C98.22021757 -0.11873243 102.27787297 -0.10920258 106.3359375 -0.09765625 C107.51713669 -0.10529999 108.69833588 -0.11294373 109.91532898 -0.12081909 C125.90414899 -0.02090779 137.91402276 3.94150177 149.5690918 14.8918457 C158.1562701 23.81548926 162.96439174 35.48096363 163.00250244 47.88233948 C163.00821259 48.99936752 163.01392273 50.11639557 163.01980591 51.26727295 C163.0214827 53.09152802 163.0214827 53.09152802 163.02319336 54.95263672 C163.02815826 56.24106979 163.03312317 57.52950287 163.03823853 58.85697937 C163.05132716 62.38630158 163.05780115 65.9156048 163.06224918 69.44494748 C163.06518704 71.65469124 163.06929329 73.86442989 163.07375336 76.07417107 C163.0874221 83.00146381 163.09709048 89.92874478 163.10095525 96.85605007 C163.10542757 104.82673617 163.12293951 112.79725006 163.15195584 120.76788384 C163.17365365 126.94477004 163.18366391 133.12160809 163.18499637 139.29853195 C163.18603908 142.97991217 163.19183151 146.6611304 163.20981598 150.34247017 C163.22953394 154.4587236 163.22497564 158.5746223 163.21850586 162.69091797 C163.22772064 163.8929184 163.23693542 165.09491882 163.24642944 166.33334351 C163.17447189 181.0212071 159.4323022 193.57802442 149.36206055 204.5246582 C137.446552 215.81114292 123.55074588 218.58186596 107.63818359 218.54931641 C106.33941284 218.55442734 105.04064209 218.55953827 103.70251465 218.56480408 C100.16306951 218.57811276 96.62373168 218.57878177 93.08426642 218.57624078 C90.11745541 218.57516528 87.1506656 218.58006928 84.18385917 218.5848462 C77.1772439 218.59591379 70.17068226 218.59639465 63.1640625 218.59033203 C55.96416522 218.5842974 48.76446361 218.59659653 41.56459969 218.6179021 C35.35790004 218.63558543 29.15126229 218.64150881 22.94453841 218.63826436 C19.24869922 218.63646167 15.55299956 218.63898504 11.85718346 218.6529789 C7.72936923 218.66802563 3.60194664 218.65852863 -0.52587891 218.64697266 C-2.33347939 218.65843826 -2.33347939 218.65843826 -4.17759705 218.6701355 C-18.91531057 218.57940801 -32.15689527 214.82810801 -43.03637695 204.5637207 C-53.43697073 193.23519291 -56.75416214 180.41929763 -56.65551758 165.35888672 C-56.66095336 164.0087611 -56.6680841 162.65864142 -56.67675781 161.30853271 C-56.69482341 157.67816985 -56.68799365 154.04826725 -56.67524147 150.41789746 C-56.66502375 146.59498803 -56.67453143 142.77211468 -56.68078613 138.94920349 C-56.68803815 132.53149434 -56.67854043 126.11397006 -56.65942383 119.69628906 C-56.63766898 112.30825422 -56.64470604 104.92066129 -56.66672945 97.53263718 C-56.68496478 91.15683516 -56.68740205 84.78116509 -56.67697477 78.40534538 C-56.67078303 74.61168977 -56.66978332 70.81824087 -56.68312073 67.02459908 C-56.69479772 63.45463832 -56.68644158 59.88523912 -56.6635437 56.31533813 C-56.65585432 54.40354656 -56.66751125 52.49170669 -56.68005371 50.5799408 C-56.54533913 36.60486646 -52.47956959 24.55015519 -43.1418457 14.0246582 C-31.0526329 2.31254011 -16.11996929 -0.03363668 0 0 Z M-17.13793945 42.2746582 C-18.82318292 45.82193916 -19.38973113 48.630398 -19.39863586 52.54307556 C-19.40572067 53.58463303 -19.41280548 54.62619049 -19.42010498 55.6993103 C-19.41762756 56.83139923 -19.41515015 57.96348816 -19.41259766 59.12988281 C-19.41770859 60.33041794 -19.42281952 61.53095306 -19.42808533 62.76786804 C-19.43959138 66.05304132 -19.44205689 69.33805786 -19.43952203 72.62324595 C-19.43845061 75.36922838 -19.44334002 78.11518765 -19.44812745 80.86116511 C-19.45921374 87.34105485 -19.45966495 93.82088662 -19.45361328 100.30078125 C-19.44757296 106.97812606 -19.45988785 113.65526019 -19.48118335 120.33256906 C-19.49881504 126.07285716 -19.50479826 131.8130783 -19.50154561 137.55339247 C-19.49973515 140.97858986 -19.50234509 144.40363694 -19.51626015 147.82880974 C-19.52858704 151.64938498 -19.5218548 155.46947172 -19.51025391 159.29003906 C-19.51789764 160.42010376 -19.52554138 161.55016846 -19.53341675 162.71447754 C-19.49615202 168.26290925 -19.45948956 172.58401764 -16.13793945 177.2746582 C-13.00606059 180.15700216 -10.93448074 180.65161772 -6.71730042 180.66233826 C-5.06650986 180.67719521 -5.06650986 180.67719521 -3.38237 180.69235229 C-2.17965958 180.68785065 -0.97694916 180.683349 0.26220703 180.67871094 C1.53247742 180.68557419 2.8027478 180.69243744 4.11151123 180.69950867 C7.59297719 180.71745191 11.07419126 180.71626955 14.55568957 180.71056628 C17.4632715 180.70747594 20.37080494 180.71356517 23.27837998 180.71960503 C30.13842715 180.73365259 36.99834981 180.73208723 43.85839844 180.72070312 C50.93286113 180.70922255 58.00694469 180.72329572 65.08135742 180.7500996 C71.15792619 180.77225981 77.23437598 180.77889326 83.31098229 180.77302319 C86.93908234 180.76965301 90.56693938 180.77207232 94.19500542 180.78927422 C98.24108749 180.80762073 102.28643243 180.79355316 106.33251953 180.77636719 C107.53320572 180.78603516 108.73389191 180.79570312 109.97096252 180.80566406 C116.33397034 180.80343441 116.33397034 180.80343441 122.08265686 178.36830139 C124.83509929 175.12978256 124.99146041 173.31088824 125.01596069 169.13249207 C125.02456116 168.04312851 125.03316162 166.95376495 125.04202271 165.83139038 C125.04628265 164.63084015 125.0505426 163.43028992 125.05493164 162.19335938 C125.06310913 160.93313461 125.07128662 159.67290985 125.07971191 158.37449646 C125.10593426 154.18889506 125.12123954 150.00328364 125.13549805 145.81762695 C125.1408576 144.37706305 125.14623511 142.93649921 125.1516304 141.49593544 C125.17325927 135.50388932 125.19199624 129.5118459 125.20325279 123.51977062 C125.21949399 114.93060595 125.25267511 106.34189352 125.30965364 97.75289935 C125.34834616 91.7146142 125.36788461 85.67645005 125.37317336 79.63804418 C125.3768278 76.03103995 125.38885757 72.42451803 125.42127609 68.81764793 C125.45693216 64.79287165 125.45298776 60.76906796 125.44555664 56.74414062 C125.46196198 55.54966309 125.47836731 54.35518555 125.49526978 53.12451172 C125.64490158 46.51866388 125.64490158 46.51866388 122.45059204 41.05781555 C118.82871205 38.56281716 117.07634709 38.14707751 112.71989441 38.12748718 C111.63053085 38.12033188 110.5411673 38.11317657 109.41879272 38.10580444 C108.21824249 38.10311554 107.01769226 38.10042664 105.78076172 38.09765625 C104.52053696 38.09108505 103.26031219 38.08451385 101.9618988 38.07774353 C98.49898841 38.06033019 95.03609182 38.04978086 91.57314849 38.041538 C89.40987581 38.03638849 87.24660743 38.03031273 85.08333778 38.02402687 C78.31569941 38.00497375 71.54807195 37.99074294 64.7804119 37.9824149 C56.96691416 37.97264131 49.15369963 37.94631944 41.34030169 37.90591401 C35.30201418 37.87575923 29.26380788 37.86094665 23.22544652 37.85763389 C19.61852003 37.85528263 16.01189604 37.84631301 12.40505028 37.82117271 C8.38036634 37.79357347 4.35631549 37.79772109 0.33154297 37.8046875 C-0.86293457 37.79187744 -2.05741211 37.77906738 -3.28808594 37.76586914 C-11.14228143 37.65432422 -11.14228143 37.65432422 -17.13793945 42.2746582 Z " fill="#000000" transform="translate(60.137939453125,290.725341796875)"/>
<path d="M0 0 C1.29877075 -0.00511093 2.5975415 -0.01022186 3.93566895 -0.01548767 C7.47511409 -0.02879635 11.01445191 -0.02946536 14.55391717 -0.02692437 C17.52072818 -0.02584887 20.48751799 -0.03075287 23.45432442 -0.03552979 C30.46093969 -0.04659739 37.46750133 -0.04707825 44.47412109 -0.04101562 C51.67401838 -0.03498099 58.87371999 -0.04728012 66.0735839 -0.06858569 C72.28028355 -0.08626902 78.4869213 -0.0921924 84.69364518 -0.08894795 C88.38948437 -0.08714526 92.08518403 -0.08966863 95.78100014 -0.10366249 C99.90881436 -0.11870923 104.03623696 -0.10921222 108.1640625 -0.09765625 C109.97166298 -0.10912186 109.97166298 -0.10912186 111.81578064 -0.12081909 C127.12707791 -0.02656054 140.21630106 4.05746035 151.44799805 14.6887207 C161.62992117 25.99817223 164.23317242 38.30454617 164.18017578 53.07104492 C164.1858906 54.43234819 164.19285912 55.79364667 164.20097351 57.15493774 C164.21879882 60.82452586 164.21775663 64.49387346 164.21203113 68.16349173 C164.20892338 71.23971597 164.21504933 74.31589507 164.22106987 77.39211285 C164.23507898 84.65622276 164.23358442 91.92021497 164.22216797 99.18432617 C164.21069382 106.649577 164.22475866 114.11446827 164.25156444 121.57967174 C164.27379959 128.01570199 164.28034121 134.45162001 164.27448803 140.88768589 C164.27113542 144.71991858 164.27341927 148.55192098 164.29073906 152.38412094 C164.3063313 155.99096251 164.30211883 159.59727612 164.28343391 163.20409775 C164.27805635 165.13877971 164.29216873 167.07348609 164.30712891 169.00811768 C164.19322698 182.6755327 159.87623126 194.25751057 150.7800293 204.52856445 C138.69631669 216.21318196 123.80409421 218.58865509 107.69824219 218.53344727 C106.42697983 218.5369519 105.15571747 218.54045654 103.84593201 218.54406738 C100.38717869 218.55311566 96.92854588 218.54967842 93.4697907 218.54330921 C89.83145552 218.53820864 86.19312994 218.54295195 82.55479431 218.54608154 C76.44634164 218.54970991 70.33793748 218.54495233 64.22949219 218.53540039 C57.19261757 218.52452289 50.15585894 218.52804084 43.11898714 218.5390532 C37.05156249 218.54816422 30.98417251 218.54939264 24.91674322 218.54417586 C21.3042638 218.54107642 17.69183868 218.54059043 14.07936287 218.54724884 C10.04730624 218.55416276 6.01544573 218.54454758 1.98339844 218.53344727 C0.21483994 218.53951996 0.21483994 218.53951996 -1.58944702 218.54571533 C-17.59177159 218.46450918 -30.25292073 214.93367708 -42.03637695 203.62231445 C-50.47760674 194.56306605 -55.32610913 183.1005745 -55.36431885 170.66697693 C-55.37002899 169.54994888 -55.37573914 168.43292084 -55.38162231 167.28204346 C-55.38274017 166.06587341 -55.38385803 164.84970337 -55.38500977 163.59667969 C-55.38997467 162.30824661 -55.39493958 161.01981354 -55.40005493 159.69233704 C-55.41314357 156.16301482 -55.41961755 152.63371161 -55.42406559 149.10436893 C-55.42700345 146.89462517 -55.4311097 144.68488651 -55.43556976 142.47514534 C-55.44923851 135.5478526 -55.45890689 128.62057162 -55.46277165 121.69326633 C-55.46724397 113.72258024 -55.48475592 105.75206634 -55.51377225 97.78143257 C-55.53547006 91.60454637 -55.54548032 85.42770832 -55.54681277 79.25078446 C-55.54785549 75.56940423 -55.55364791 71.888186 -55.57163239 68.20684624 C-55.59135035 64.09059281 -55.58679205 59.9746941 -55.58032227 55.85839844 C-55.58953705 54.65639801 -55.59875183 53.45439758 -55.60824585 52.2159729 C-55.5362883 37.5281093 -51.79411861 24.97129199 -41.72387695 14.0246582 C-29.80836841 2.73817349 -15.91256228 -0.03254955 0 0 Z M-16.22387695 42.2746582 C-17.49065107 44.80820644 -17.36114136 46.57968475 -17.3777771 49.41682434 C-17.38637756 50.5061879 -17.39497803 51.59555145 -17.40383911 52.71792603 C-17.40809906 53.91847626 -17.41235901 55.11902649 -17.41674805 56.35595703 C-17.42492554 57.61618179 -17.43310303 58.87640656 -17.44152832 60.17481995 C-17.46775066 64.36042135 -17.48305595 68.54603277 -17.49731445 72.73168945 C-17.50267401 74.17225336 -17.50805152 75.6128172 -17.51344681 77.05338097 C-17.53507568 83.04542709 -17.55381265 89.0374705 -17.5650692 95.02954578 C-17.58131039 103.61871046 -17.61449151 112.20742289 -17.67147005 120.79641706 C-17.71016257 126.8347022 -17.72970102 132.87286636 -17.73498976 138.91127223 C-17.7386442 142.51827646 -17.75067397 146.12479838 -17.7830925 149.73166847 C-17.81874857 153.75644476 -17.81480416 157.78024844 -17.80737305 161.80517578 C-17.82377838 162.99965332 -17.84018372 164.19413086 -17.85708618 165.42480469 C-18.00671798 172.03065252 -18.00671798 172.03065252 -14.81240845 177.49150085 C-11.19052845 179.98649925 -9.43816349 180.40223889 -5.08171082 180.42182922 C-3.44766548 180.43256218 -3.44766548 180.43256218 -1.78060913 180.44351196 C-0.5800589 180.44620087 0.62049133 180.44888977 1.85742188 180.45166016 C3.74775902 180.46151695 3.74775902 180.46151695 5.67628479 180.47157288 C9.13919519 180.48898622 12.60209177 180.49953555 16.0650351 180.50777841 C18.22830778 180.51292792 20.39157616 180.51900367 22.55484581 180.52528954 C29.32248419 180.54434266 36.09011165 180.55857347 42.85777169 180.5669015 C50.67126943 180.57667509 58.48448397 180.60299697 66.2978819 180.6434024 C72.33616941 180.67355718 78.37437572 180.68836976 84.41273707 180.69168252 C88.01966357 180.69403378 91.62628756 180.7030034 95.23313332 180.72814369 C99.25781726 180.75574293 103.2818681 180.75159531 107.30664062 180.74462891 C108.50111816 180.75743896 109.6955957 180.77024902 110.92626953 180.78344727 C117.2067862 180.78825815 117.2067862 180.78825815 122.9304657 178.49528503 C126.08148446 174.70409551 127.02580462 171.9747331 127.03681946 167.0438385 C127.04390427 165.98538223 127.05098907 164.92692596 127.05828857 163.83639526 C127.05581116 162.68043854 127.05333374 161.52448181 127.05078125 160.33349609 C127.05589218 159.11199356 127.06100311 157.89049103 127.06626892 156.63197327 C127.07778794 153.28479203 127.08023842 149.93785842 127.07770562 146.59067464 C127.07663543 143.79494171 127.0815205 140.99923159 127.08631104 138.20350355 C127.09740378 131.60716858 127.09784495 125.01089056 127.09179688 118.41455078 C127.0857563 111.61280829 127.09807061 104.81127262 127.11936694 98.00956541 C127.13698792 92.1665541 127.14298353 86.32360859 127.1397292 80.48057169 C127.13791698 76.99223516 127.14054622 73.50404616 127.15444374 70.01573372 C127.16936288 66.12547831 127.16004757 62.23548593 127.1484375 58.34521484 C127.15608124 57.19128235 127.16372498 56.03734985 127.17160034 54.84844971 C127.16458603 53.78717361 127.15757172 52.72589752 127.15034485 51.63246155 C127.15051259 50.71309846 127.15068033 49.79373537 127.15085316 48.84651279 C126.56371667 44.81686684 124.82307258 42.28737971 121.92741299 39.48638821 C119.23380637 37.96919431 117.44079113 37.89482134 114.35548401 37.88697815 C113.25495697 37.87707352 112.15442993 37.86716888 111.02055359 37.85696411 C109.81784317 37.86146576 108.61513275 37.86596741 107.37597656 37.87060547 C106.10570618 37.86374222 104.83543579 37.85687897 103.52667236 37.84980774 C100.04520641 37.83186449 96.56399233 37.83304685 93.08249402 37.83875012 C90.17491209 37.84184046 87.26737865 37.83575123 84.35980362 37.82971138 C77.49975644 37.81566382 70.63983379 37.81722918 63.77978516 37.82861328 C56.70532247 37.84009386 49.6312389 37.82602069 42.55682617 37.79921681 C36.4802574 37.7770566 30.40380761 37.77042315 24.32720131 37.77629322 C20.69910126 37.7796634 17.07124421 37.77724409 13.44317818 37.76004219 C9.3970961 37.74169567 5.35175116 37.75576325 1.30566406 37.77294922 C0.10497787 37.76328125 -1.09570831 37.75361328 -2.33277893 37.74365234 C-10.16336333 37.68193889 -10.16336333 37.68193889 -16.22387695 42.2746582 Z " fill="#000000" transform="translate(58.223876953125,2.725341796875)"/>
<path d="M0 0 C20.97812674 18.25279294 34.31722507 44.41578185 36.75 72.1875 C38.48451848 101.80380676 30.30172298 130.48424734 10.75 153.1875 C-10.56908808 177.04923162 -37.72648932 189.25135867 -69.47265625 191.40625 C-98.6065606 192.2902117 -126.08722123 180.79542975 -147.375 161.375 C-162.84246084 146.79447418 -172.99170569 128.77553062 -178.25 108.1875 C-178.46269531 107.39859375 -178.67539062 106.6096875 -178.89453125 105.796875 C-185.34382056 78.5149893 -179.43330449 48.32370175 -165.00463867 24.59472656 C-160.7301014 17.85080564 -155.80920109 11.91250182 -150.25 6.1875 C-149.57710938 5.44113281 -148.90421875 4.69476563 -148.2109375 3.92578125 C-109.55080603 -37.55784297 -41.49712865 -34.91852199 0 0 Z M-124.71875 33.8203125 C-137.93875632 49.28771989 -144.56302824 67.70611624 -143.43652344 88.0390625 C-141.84581646 106.3613418 -133.20149621 123.83072613 -119.2109375 135.875 C-103.5414741 148.73873446 -85.6427092 154.80939655 -65.45507812 153.41064453 C-46.00219158 151.44209512 -29.15216578 141.71066299 -16.41796875 127.015625 C-3.53053559 110.20391039 1.14496122 90.89041884 -1.53417969 69.96826172 C-4.84084684 51.78159239 -15.47191111 35.18671685 -30.25 24.1875 C-38.80351034 18.53699923 -47.22159381 14.62907895 -57.25 12.1875 C-58.01570313 11.99671875 -58.78140625 11.8059375 -59.5703125 11.609375 C-83.89868457 7.77925228 -107.85436658 15.83519474 -124.71875 33.8203125 Z " fill="#000000" transform="translate(472.25,29.8125)"/>
</svg>
